<?xml version="1.0" encoding="UTF-8"?>
<svg width="8px" height="11px" viewBox="0 0 8 11" version="1.1" xmlns="http://www.w3.org/2000/svg" xmlns:xlink="http://www.w3.org/1999/xlink">
    <!-- Generator: Sketch 64 (93537) - https://sketch.com -->
    <title>? 2</title>
    <desc>Created with Sketch.</desc>
    <g id="Page-1" stroke="none" stroke-width="1" fill="none" fill-rule="evenodd">
        <g id="Artboard" transform="translate(-46.000000, -30.000000)" fill="#000000" fill-rule="nonzero">
            <g id="?-2" transform="translate(46.254443, 30.152832)">
                <path d="M4.72412109,8.07861328 C4.71435547,7.51220703 4.76196289,7.11914062 4.86694336,6.89941406 C4.97192383,6.6796875 5.24169922,6.38916016 5.67626953,6.02783203 C6.51611328,5.32958984 7.06420898,4.77783203 7.32055664,4.37255859 C7.5769043,3.96728516 7.70507812,3.53759766 7.70507812,3.08349609 C7.70507812,2.26318359 7.35595703,1.54418945 6.65771484,0.926513672 C5.95947266,0.308837891 5.01953125,0 3.83789062,0 C2.71484375,0 1.80786133,0.305175781 1.11694336,0.915527344 C0.426025391,1.52587891 0.0537109375,2.26806641 0,3.14208984 L0,3.14208984 L1.88964844,3.37646484 C2.02148438,2.76611328 2.26318359,2.31201172 2.61474609,2.01416016 C2.96630859,1.71630859 3.40332031,1.56738281 3.92578125,1.56738281 C4.46777344,1.56738281 4.89868164,1.71020508 5.21850586,1.99584961 C5.53833008,2.28149414 5.69824219,2.62451172 5.69824219,3.02490234 C5.69824219,3.31298828 5.60791016,3.57666016 5.42724609,3.81591797 C5.31005859,3.96728516 4.95117188,4.28710938 4.35058594,4.77539062 C3.75,5.26367188 3.34960938,5.703125 3.14941406,6.09375 C2.94921875,6.484375 2.84912109,6.98242188 2.84912109,7.58789062 C2.84912109,7.64648438 2.8515625,7.81005859 2.85644531,8.07861328 L2.85644531,8.07861328 L4.72412109,8.07861328 Z M4.91455078,10.847168 L4.91455078,8.7890625 L2.85644531,8.7890625 L2.85644531,10.847168 L4.91455078,10.847168 Z" id="?"></path>
            </g>
        </g>
    </g>
</svg>