<?xml version="1.0" encoding="UTF-8"?>
<svg width="61px" height="135px" viewBox="0 0 61 135" version="1.1" xmlns="http://www.w3.org/2000/svg" xmlns:xlink="http://www.w3.org/1999/xlink">
    <!-- Generator: Sketch 54.1 (76490) - https://sketchapp.com -->
    <title>isotype</title>
    <desc>Created with Sketch.</desc>
    <g id="Page-1" stroke="none" stroke-width="1" fill="none" fill-rule="evenodd">
        <g id="isotype">
            <path d="M23.48,70.268 C23.48,70.268 24.952,74.473 30.629,74.473 C36.306,74.473 37.568,70.268 37.568,70.268 L23.48,70.268 Z" id="Path" stroke="#000000" fill="#C4C4C4" fill-rule="nonzero"></path>
            <path d="M4.135,97.182 L3.925,45.677 M57.122,45.677 L57.122,94.238 M37.568,125.358 L37.568,87.72 C37.568,85.197 34.624,81.202 30.629,81.202 C26.844,81.202 23.9,84.776 23.9,88.141 L23.9,125.568 M10.444,73.632 L10.444,108.536 M50.605,73.632 L50.815,108.536 M30.84,88.351 L30.84,134.189 M17.383,117.157 L17.383,87.93 C17.383,80.571 22.64,74.684 29.999,74.684 C39.461,74.684 44.087,82.464 44.087,89.402 L44.087,117.157" id="Shape" stroke="#000000"></path>
            <path d="M3.925,51.12 L56.925,51.12 L56.925,65.37 L3.92601921,59.95 L3.92601921,51.12 L3.925,51.12 Z M58.13,33.374 L58.13,29.691 C58.06,19.96 50.115,11.4 38.516,8.595 C39.469,4.81 36.415,1.115 31.708,0.361 C27,-0.405 22.405,2.05 21.467,5.835 C21.1881273,6.95883054 21.2564652,8.14079774 21.663,9.225 C16.395,10.509 11.926,12.942 8.634,16.31 C4.992,20.05 3.072,24.69 3.072,29.747 L3.072,33.34 C1.252,34.151 0.116,35.695 0.13,37.373 L0.13,42.07 C0.144,44.615 2.722,46.676 5.888,46.676 L55.132,46.676 C58.298,46.699 60.889,44.638 60.917,42.092 L60.917,37.384 C60.931,35.74 59.867,34.219 58.129,33.374 L58.13,33.374 Z M24.507,5.452 C25.403,3.65 27.575,2.467 29.984,2.467 C33.234,2.467 35.868,4.585 35.882,7.209 C35.882,7.806 35.742,8.403 35.462,8.966 C34.257,11.399 30.825,12.582 27.813,11.613 C24.787,10.645 23.302,7.885 24.507,5.452 Z M5.874,29.747 C5.874,20.816 12.529,13.652 22.924,11.275 C25.712,14.418 31.147,15.139 35.042,12.897 C36.0107979,12.3533993 36.8517152,11.6083043 37.508,10.712 C42.397,11.872 46.726,14.204 49.906,17.392 C53.38,20.883 55.286,25.22 55.314,29.692 L55.314,32.732 C55.174,32.732 55.174,32.699 55.132,32.699 L5.916,32.699 C5.902,32.699 5.874,32.732 5.874,32.732 L5.874,29.747 Z M58.13,42.06 C58.115,43.366 56.799,44.414 55.173,44.414 L5.916,44.414 C4.291,44.436 2.96,43.389 2.932,42.082 L2.932,37.362 C2.932,36.325 3.759,35.413 4.978,35.098 C4.978,35.098 4.992,35.086 4.992,35.075 C5.29177309,34.9852015 5.60306614,34.9397203 5.916,34.94 L55.146,34.94 C55.468,34.94 55.79,34.985 56.084,35.086 C56.098,35.086 56.098,35.098 56.112,35.098 C57.317,35.424 58.129,36.337 58.129,37.362 L58.129,42.059 L58.13,42.06 Z" id="Shape" fill="#000000" fill-rule="nonzero"></path>
            <path d="M5.524,26.701 L55.524,26.701 M5.524,24.701 L55.524,24.701 M5.524,22.701 L55.524,22.701" id="Shape" stroke="#000000"></path>
        </g>
    </g>
</svg>